<svg width="70" height="70" viewBox="0 0 70 70" fill="none" xmlns="http://www.w3.org/2000/svg">
<path d="M52.5002 37.9167H37.9168V52.5C37.9168 54.1042 36.6043 55.4167 35.0002 55.4167C33.396 55.4167 32.0835 54.1042 32.0835 52.5V37.9167H17.5002C15.896 37.9167 14.5835 36.6042 14.5835 35C14.5835 33.3958 15.896 32.0833 17.5002 32.0833H32.0835V17.5C32.0835 15.8958 33.396 14.5833 35.0002 14.5833C36.6043 14.5833 37.9168 15.8958 37.9168 17.5V32.0833H52.5002C54.1043 32.0833 55.4168 33.3958 55.4168 35C55.4168 36.6042 54.1043 37.9167 52.5002 37.9167Z" fill="white"/>
</svg>
