<svg width="31" height="31" viewBox="0 0 31 31" fill="none" xmlns="http://www.w3.org/2000/svg">
<path d="M15.4814 3.18945C8.58145 3.18945 2.98145 8.78945 2.98145 15.6895C2.98145 22.5895 8.58145 28.1895 15.4814 28.1895C22.3814 28.1895 27.9814 22.5895 27.9814 15.6895C27.9814 8.78945 22.3814 3.18945 15.4814 3.18945ZM15.4814 25.6895C9.96895 25.6895 5.48145 21.202 5.48145 15.6895C5.48145 10.177 9.96895 5.68945 15.4814 5.68945C20.9939 5.68945 25.4814 10.177 25.4814 15.6895C25.4814 21.202 20.9939 25.6895 15.4814 25.6895ZM21.2189 10.1645L12.9814 18.402L9.74395 15.177L7.98145 16.9395L12.9814 21.9395L22.9814 11.9395L21.2189 10.1645Z" fill="white"/>
</svg>
