<svg width="25" height="25" viewBox="0 0 25 25" fill="none" xmlns="http://www.w3.org/2000/svg">
<path d="M6.25016 19.7917C6.25016 20.9375 7.18766 21.875 8.3335 21.875H16.6668C17.8127 21.875 18.7502 20.9375 18.7502 19.7917V9.375C18.7502 8.22917 17.8127 7.29167 16.6668 7.29167H8.3335C7.18766 7.29167 6.25016 8.22917 6.25016 9.375V19.7917ZM18.7502 4.16667H16.146L15.4064 3.42708C15.2189 3.23958 14.9481 3.125 14.6772 3.125H10.3231C10.0522 3.125 9.78141 3.23958 9.59391 3.42708L8.85433 4.16667H6.25016C5.67725 4.16667 5.2085 4.63542 5.2085 5.20833C5.2085 5.78125 5.67725 6.25 6.25016 6.25H18.7502C19.3231 6.25 19.7918 5.78125 19.7918 5.20833C19.7918 4.63542 19.3231 4.16667 18.7502 4.16667Z" fill="white"/>
</svg>
