<svg width="22" height="24" viewBox="0 0 22 24" fill="none" xmlns="http://www.w3.org/2000/svg">
<path d="M10.9998 4.45801C6.4165 4.45801 2.50234 7.53892 0.916504 11.8879C2.50234 16.2368 6.4165 19.3177 10.9998 19.3177C15.5832 19.3177 19.4973 16.2368 21.0832 11.8879C19.4973 7.53892 15.5832 4.45801 10.9998 4.45801ZM10.9998 16.8411C8.46984 16.8411 6.4165 14.622 6.4165 11.8879C6.4165 9.15367 8.46984 6.93462 10.9998 6.93462C13.5298 6.93462 15.5832 9.15367 15.5832 11.8879C15.5832 14.622 13.5298 16.8411 10.9998 16.8411ZM10.9998 8.91592C9.47817 8.91592 8.24984 10.2434 8.24984 11.8879C8.24984 13.5323 9.47817 14.8598 10.9998 14.8598C12.5215 14.8598 13.7498 13.5323 13.7498 11.8879C13.7498 10.2434 12.5215 8.91592 10.9998 8.91592Z" fill="white"/>
</svg>
