<svg width="137" height="94" viewBox="0 0 137 94" fill="none" xmlns="http://www.w3.org/2000/svg">
<path d="M7.94228 93.3763H93.4597C97.7355 93.3763 101.234 89.8778 101.234 85.602C101.234 81.3261 97.7355 77.8277 93.4597 77.8277H7.94228C3.66641 77.8277 0.167969 81.3261 0.167969 85.602C0.167969 89.8778 3.66641 93.3763 7.94228 93.3763ZM7.94228 54.5047H70.1367C74.4126 54.5047 77.911 51.0063 77.911 46.7304C77.911 42.4546 74.4126 38.9561 70.1367 38.9561H7.94228C3.66641 38.9561 0.167969 42.4546 0.167969 46.7304C0.167969 51.0063 3.66641 54.5047 7.94228 54.5047ZM0.167969 7.85889C0.167969 12.1348 3.66641 15.6332 7.94228 15.6332H93.4597C97.7355 15.6332 101.234 12.1348 101.234 7.85889C101.234 3.58303 97.7355 0.0845871 93.4597 0.0845871H7.94228C3.66641 0.0845871 0.167969 3.58303 0.167969 7.85889ZM134.663 69.1204L112.273 46.7304L134.663 24.3404C137.695 21.3084 137.695 16.4106 134.663 13.3787C131.632 10.3467 126.734 10.3467 123.702 13.3787L95.792 41.2884C92.76 44.3204 92.76 49.2182 95.792 52.2502L123.702 80.1599C126.734 83.1919 131.632 83.1919 134.663 80.1599C137.618 77.128 137.695 72.1524 134.663 69.1204Z" fill="white"/>
</svg>
