<svg width="101" height="100" viewBox="0 0 101 100" fill="none" xmlns="http://www.w3.org/2000/svg">
<path d="M43.2274 20H58.2274V35H43.2274V20Z" fill="white"/>
<path d="M20.7274 65H35.7274V80H20.7274V65Z" fill="white"/>
<path d="M20.7274 42.5H35.7274V57.5H20.7274V42.5Z" fill="white"/>
<path d="M20.7274 20H35.7274V35H20.7274V20Z" fill="white"/>
<path d="M82.7774 47.35L78.3774 42.95C77.7774 42.35 76.7774 42.35 76.1774 42.95L72.8774 46.25L79.4274 52.8L82.7274 49.5C83.3774 48.9 83.3774 47.95 82.7774 47.35Z" fill="white"/>
<path d="M45.7274 73.45V80H52.2774L77.2774 55L70.7274 48.45L45.7274 73.45Z" fill="white"/>
<path d="M58.2274 53.85V42.5H43.2274V57.5H54.5774L58.2274 53.85Z" fill="white"/>
<path d="M65.7274 20H80.7274V35H65.7274V20Z" fill="white"/>
</svg>
