<svg width="50" height="50" viewBox="0 0 50 50" fill="none" xmlns="http://www.w3.org/2000/svg">
<path d="M32.292 29.1667H30.6462L30.0628 28.6042C32.5628 25.6875 33.8545 21.7084 33.1462 17.4792C32.167 11.6875 27.3337 7.06252 21.5003 6.35419C12.6878 5.27085 5.27116 12.6875 6.35449 21.5C7.06283 27.3334 11.6878 32.1667 17.4795 33.1459C21.7087 33.8542 25.6878 32.5625 28.6045 30.0625L29.167 30.6459V32.2917L38.0212 41.1459C38.8753 42 40.2712 42 41.1253 41.1459C41.9795 40.2917 41.9795 38.8959 41.1253 38.0417L32.292 29.1667ZM19.792 29.1667C14.6045 29.1667 10.417 24.9792 10.417 19.7917C10.417 14.6042 14.6045 10.4167 19.792 10.4167C24.9795 10.4167 29.167 14.6042 29.167 19.7917C29.167 24.9792 24.9795 29.1667 19.792 29.1667Z" fill="white"/>
</svg>
